<?xml version="1.0" standalone="no"?><svg xmlns="http://www.w3.org/2000/svg" viewBox="0 0 1440 320"><path fill="#273036" fill-opacity="1" d="M0,288L57.6,256L115.2,96L172.8,128L230.4,128L288,288L345.6,0L403.2,128L460.8,96L518.4,128L576,192L633.6,32L691.2,256L748.8,192L806.4,32L864,64L921.6,256L979.2,256L1036.8,64L1094.4,64L1152,256L1209.6,288L1267.2,224L1324.8,256L1382.4,160L1440,64L1440,320L1382.4,320L1324.8,320L1267.2,320L1209.6,320L1152,320L1094.4,320L1036.8,320L979.2,320L921.6,320L864,320L806.4,320L748.8,320L691.2,320L633.6,320L576,320L518.4,320L460.8,320L403.2,320L345.6,320L288,320L230.4,320L172.8,320L115.2,320L57.6,320L0,320Z"></path></svg>